HIERARCHY
ROOT hip
{
  OFFSET 0 0 0
  CHANNELS 6 Xposition Yposition Zposition Zrotation Yrotation Xrotation
  JOINT abdomen
  {
    OFFSET 0 20.6881 -0.73152
    CHANNELS 3 Zrotation Xrotation Yrotation
    JOINT chest
    {
      OFFSET 0 11.7043 -0.48768
      CHANNELS 3 Zrotation Xrotation Yrotation
      JOINT neck
      {
        OFFSET 0 22.1894 -2.19456
        CHANNELS 3 Zrotation Xrotation Yrotation
        JOINT head
        {
          OFFSET -0.24384 7.07133 1.2192
          CHANNELS 3 Zrotation Xrotation Yrotation
          JOINT leftEye
          {
            OFFSET 4.14528 8.04674 8.04672
            CHANNELS 3 Zrotation Xrotation Yrotation
            End Site
            {
              OFFSET 1 0 0
            }
          }
          JOINT rightEye
          {
            OFFSET -3.6576 8.04674 8.04672
            CHANNELS 3 Zrotation Xrotation Yrotation
            End Site
            {
              OFFSET 1 0 0
            }
          }
        }
      }
      JOINT rCollar
      {
        OFFSET -2.68224 19.2634 -4.8768
        CHANNELS 3 Zrotation Xrotation Yrotation
        JOINT rShldr
        {
          OFFSET -8.77824 -1.95073 1.46304
          CHANNELS 3 Zrotation Xrotation Yrotation
          JOINT rForeArm
          {
            OFFSET -28.1742 -1.7115 0.48768
            CHANNELS 3 Zrotation Xrotation Yrotation
            JOINT rHand
            {
              OFFSET -22.5879 0.773209 7.07136
              CHANNELS 3 Zrotation Xrotation Yrotation
              JOINT rThumb1
              {
                OFFSET -1.2192 -0.487915 3.41376
                CHANNELS 3 Zrotation Xrotation Yrotation
                JOINT rThumb2
                {
                  OFFSET -3.37035 -0.52449 3.41376
                  CHANNELS 3 Zrotation Xrotation Yrotation
                  End Site
                  {
                    OFFSET -1.78271 -1.18214 1.43049
                  }
                }
              }
              JOINT rIndex1
              {
                OFFSET -7.75947 0.938293 5.60832
                CHANNELS 3 Zrotation Xrotation Yrotation
                JOINT rIndex2
                {
                  OFFSET -2.54057 -0.884171 1.56538
                  CHANNELS 3 Zrotation Xrotation Yrotation
                  End Site
                  {
                    OFFSET -1.62519 -0.234802 1.16502
                  }
                }
              }
              JOINT rMid1
              {
                OFFSET -8.24714 1.18213 3.41376
                CHANNELS 3 Zrotation Xrotation Yrotation
                JOINT rMid2
                {
                  OFFSET -3.10165 -0.590103 1.0647
                  CHANNELS 3 Zrotation Xrotation Yrotation
                  End Site
                  {
                    OFFSET -2.48547 -0.328903 0.83742
                  }
                }
              }
              JOINT rRing1
              {
                OFFSET -8.82822 0.546677 1.51678
                CHANNELS 3 Zrotation Xrotation Yrotation
                JOINT rRing2
                {
                  OFFSET -2.60934 -0.819778 -0.0198488
                  CHANNELS 3 Zrotation Xrotation Yrotation
                  End Site
                  {
                    OFFSET -2.33842 -0.294052 0.168128
                  }
                }
              }
              JOINT rPinky1
              {
                OFFSET -8.27202 -0.0477905 -0.4584
                CHANNELS 3 Zrotation Xrotation Yrotation
                JOINT rPinky2
                {
                  OFFSET -1.82734 -0.647385 -0.700984
                  CHANNELS 3 Zrotation Xrotation Yrotation
                  End Site
                  {
                    OFFSET -1.69225 -0.51767 -0.607171
                  }
                }
              }
            }
          }
        }
      }
      JOINT lCollar
      {
        OFFSET 2.68224 19.2634 -4.8768
        CHANNELS 3 Zrotation Xrotation Yrotation
        JOINT lShldr
        {
          OFFSET 8.77824 -1.95073 1.46304
          CHANNELS 3 Zrotation Xrotation Yrotation
          JOINT lForeArm
          {
            OFFSET 28.1742 -1.7115 0.48768
            CHANNELS 3 Zrotation Xrotation Yrotation
            JOINT lHand
            {
              OFFSET 22.5879 0.773209 7.07136
              CHANNELS 3 Zrotation Xrotation Yrotation
              JOINT lThumb1
              {
                OFFSET 1.2192 -0.487915 3.41376
                CHANNELS 3 Zrotation Xrotation Yrotation
                JOINT lThumb2
                {
                  OFFSET 3.37035 -0.52449 3.41376
                  CHANNELS 3 Zrotation Xrotation Yrotation
                  End Site
                  {
                    OFFSET 1.78271 -1.18214 1.43049
                  }
                }
              }
              JOINT lIndex1
              {
                OFFSET 7.75947 0.938293 5.60832
                CHANNELS 3 Zrotation Xrotation Yrotation
                JOINT lIndex2
                {
                  OFFSET 2.54057 -0.884171 1.56538
                  CHANNELS 3 Zrotation Xrotation Yrotation
                  End Site
                  {
                    OFFSET 1.62519 -0.234802 1.16502
                  }
                }
              }
              JOINT lMid1
              {
                OFFSET 8.24714 1.18213 3.41376
                CHANNELS 3 Zrotation Xrotation Yrotation
                JOINT lMid2
                {
                  OFFSET 3.10165 -0.590103 1.0647
                  CHANNELS 3 Zrotation Xrotation Yrotation
                  End Site
                  {
                    OFFSET 2.48547 -0.328903 0.83742
                  }
                }
              }
              JOINT lRing1
              {
                OFFSET 8.82822 0.546677 1.51678
                CHANNELS 3 Zrotation Xrotation Yrotation
                JOINT lRing2
                {
                  OFFSET 2.60934 -0.819778 -0.0198488
                  CHANNELS 3 Zrotation Xrotation Yrotation
                  End Site
                  {
                    OFFSET 2.33842 -0.294052 0.168128
                  }
                }
              }
              JOINT lPinky1
              {
                OFFSET 8.27202 -0.0477905 -0.4584
                CHANNELS 3 Zrotation Xrotation Yrotation
                JOINT lPinky2
                {
                  OFFSET 1.82734 -0.647385 -0.700984
                  CHANNELS 3 Zrotation Xrotation Yrotation
                  End Site
                  {
                    OFFSET 1.69225 -0.51767 -0.607171
                  }
                }
              }
            }
          }
        }
      }
    }
  }
  JOINT rButtock
  {
    OFFSET -8.77824 4.35084 1.2192
    CHANNELS 3 Zrotation Xrotation Yrotation
    JOINT rThigh
    {
      OFFSET 0 -1.70687 -2.19456
      CHANNELS 3 Zrotation Xrotation Yrotation
      JOINT rShin
      {
        OFFSET 0 -36.8199 0.73152
        CHANNELS 3 Zrotation Xrotation Yrotation
        JOINT rFoot
        {
          OFFSET 0.73152 -45.1104 -5.12064
          CHANNELS 3 Zrotation Xrotation Yrotation
          End Site
          {
            OFFSET -1.1221 -3.69964 12.103
          }
        }
      }
    }
  }
  JOINT lButtock
  {
    OFFSET 8.77824 4.35084 1.2192
    CHANNELS 3 Zrotation Xrotation Yrotation
    JOINT lThigh
    {
      OFFSET 0 -1.70687 -2.19456
      CHANNELS 3 Zrotation Xrotation Yrotation
      JOINT lShin
      {
        OFFSET 0 -36.8199 0.73152
        CHANNELS 3 Zrotation Xrotation Yrotation
        JOINT lFoot
        {
          OFFSET -0.73152 -45.1104 -5.12064
          CHANNELS 3 Zrotation Xrotation Yrotation
          End Site
          {
            OFFSET 1.1221 -3.69964 12.103
          }
        }
      }
    }
  }
}
MOTION
Frames:	4
Frame Time:	0.00833333
51.7772 73.8747 44.5408 0.0 0.0 0.0 0.0404824 0.000270403 0.00114435 0.0111571 0.000489938 0.00193269 6.31647e-16 0.0 -1.94126e-17 1.88224e-15 3.18055e-15 -5.90142e-17 -0.0 0.0 0.0 -0.0 0.0 0.0 3.46551e-16 -1.16475e-18 1.49089e-16 8.32323e-15 -3.72721e-17 5.96354e-16 1.14699e-13 -3.29983e-14 0.0 1.30086e-12 3.68e-14 -4.13472e-14 3.06732e-12 6.87827e-15 -9.54166e-14 5.28131e-12 1.59028e-14 -1.51076e-13 3.07242e-12 7.15625e-15 -9.85972e-14 7.73091 5.47488 0.417314 3.06625e-12 6.26172e-15 -8.26944e-14 2.90554 0.965183 0.102902 3.06828e-12 7.05686e-15 -8.74653e-14 10.2786 0.731801 0.0259123 3.06307e-12 1.07344e-14 -7.31528e-14 2.22167 -0.733487 -0.20892 2.49822e-16 -1.35888e-18 -1.49089e-16 4.79684e-15 -2.48481e-16 -9.93923e-16 1.13506e-13 3.29983e-14 -1.90833e-14 1.3004e-12 -3.88127e-14 -1.27222e-14 3.06839e-12 -1.00039e-14 -8.26944e-14 5.30835e-12 -1.90833e-14 -1.47101e-13 3.06645e-12 -1.15295e-14 -7.31528e-14 -7.73091 5.47488 -0.417314 3.06879e-12 -1.02374e-14 -8.5875e-14 -2.90554 0.965183 -0.102902 3.06291e-12 -9.74045e-15 -8.5875e-14 -10.2786 0.731801 -0.0259123 3.07162e-12 -7.15625e-15 -9.85972e-14 -2.22167 -0.733487 0.20892 -2.03217e-16 0.0 -3.88251e-19 0.554638 -3.16496 -0.043685 -0.00574518 0.179608 -0.0505575 -0.523876 2.98421 0.121168 2.03217e-16 0.0 3.88251e-19 -0.493037 -3.01454 0.0399654 0.00619332 -0.0928794 0.0545629 0.523461 3.10627 -0.123626
48.7345 71.5698 40.9036 93.2754 -86.7215 -91.9043 -0.474234 2.41072 -0.703278 0.194758 -0.515928 -0.212386 -1.99601 1.29911 -1.60296 3.45161 -4.56273 -2.3193 -0.0 0.0 0.0 -0.0 0.0 0.0 3.18153e-14 -1.04717e-12 1.2982e-14 13.6398 -7.24688 0.728063 -10.2675 -7.13052 12.4807 0.0123401 -2.46499 -0.345275 2.31191e-10 8.80398e-10 -2.24455e-11 3.99548e-10 1.51517e-09 -3.68848e-11 2.31197e-10 8.80396e-10 -2.24506e-11 7.73091 5.47488 0.417314 2.31189e-10 8.80395e-10 -2.24362e-11 2.90554 0.965183 0.102902 2.31194e-10 8.80397e-10 -2.24401e-11 10.2786 0.731801 0.0259123 2.31187e-10 8.804e-10 -2.24294e-11 2.22167 -0.733487 -0.20892 3.17094e-14 -1.04717e-12 1.2711e-14 -11.3739 -4.88899 0.183976 8.44956 -5.34369 -11.1636 -0.0531976 -5.11998 0.709229 -1.09881e-10 3.22434e-10 2.83081e-11 -1.90209e-10 5.54231e-10 4.75114e-11 -1.09884e-10 3.22425e-10 2.83195e-11 -7.73091 5.47488 -0.417314 -1.09881e-10 3.22431e-10 2.83076e-11 -2.90554 0.965183 -0.102902 -1.09886e-10 3.22431e-10 2.83069e-11 -10.2786 0.731801 -0.0259123 -1.09876e-10 3.22433e-10 2.82938e-11 -2.22167 -0.733487 0.20892 -2.03217e-16 0.0 -3.88251e-19 0.091756 -11.2483 0.627597 0.0540126 17.1343 0.204008 -0.78633 -4.14182 -1.75242 2.03217e-16 0.0 3.88251e-19 0.0912937 -10.6531 2.75353 0.00351398 16.4282 -0.166429 0.175239 -3.94586 -1.72999
48.5929 72.5924 40.8776 92.4093 -87.2342 -90.9473 -0.949723 4.98688 -1.46053 0.38138 -1.06171 -0.44172 -4.04535 2.6668 -3.29965 6.71603 -9.37333 -4.81094 -0.0 0.0 0.0 -0.0 0.0 0.0 6.65854e-14 -2.20353e-12 2.71558e-14 28.3788 -14.8071 1.55351 -17.74 -13.4825 26.2196 -0.00705277 -5.07624 -0.713212 4.81444e-10 1.84447e-09 -4.72613e-11 8.32062e-10 3.17427e-09 -7.76915e-11 4.81451e-10 1.84447e-09 -4.72686e-11 7.73091 5.47488 0.417314 4.81442e-10 1.84446e-09 -4.72555e-11 2.90554 0.965183 0.102902 4.81449e-10 1.84447e-09 -4.72585e-11 10.2786 0.731801 0.0259123 4.8144e-10 1.84447e-09 -4.72517e-11 2.22167 -0.733487 -0.20892 6.6468e-14 -2.20353e-12 2.69136e-14 -23.476 -9.99967 0.375993 15.1169 -10.2779 -23.2276 0.030531 -10.5305 1.47814 -2.33346e-10 6.74865e-10 6.01681e-11 -4.03947e-10 1.16006e-09 1.01049e-10 -2.33351e-10 6.74847e-10 6.01815e-11 -7.73091 5.47488 -0.417314 -2.33347e-10 6.74858e-10 6.01703e-11 -2.90554 0.965183 -0.102902 -2.33352e-10 6.74858e-10 6.0169e-11 -10.2786 0.731801 -0.0259123 -2.33341e-10 6.74858e-10 6.01554e-11 -2.22167 -0.733487 0.20892 -2.03217e-16 0.0 -3.88251e-19 -0.129255 -19.8236 1.42498 -0.077548 35.1499 0.558072 -1.63664 -11.7832 -3.96415 2.03217e-16 0.0 3.88251e-19 1.50652 -18.7024 5.79049 0.164413 33.9902 -0.467062 -0.602372 -11.5639 -3.361
48.4732 73.6222 40.8903 93.0678 -87.5143 -91.4147 -1.32469 7.22722 -2.12716 0.550366 -1.54868 -0.641232 -5.76981 3.88512 -4.81875 9.22255 -13.5972 -7.13686 -0.0 0.0 0.0 -0.0 0.0 0.0 9.47528e-14 -3.14149e-12 3.86477e-14 41.5076 -21.726 2.33251 -21.8766 -17.2985 39.2335 -0.0527379 -7.3939 -1.04355 6.87438e-10 2.64118e-09 -6.71457e-11 1.18808e-09 4.54546e-09 -1.10352e-10 6.87446e-10 2.64118e-09 -6.71547e-11 7.73091 5.47488 0.417314 6.87435e-10 2.64117e-09 -6.71431e-11 2.90554 0.965183 0.102902 6.87445e-10 2.64118e-09 -6.71454e-11 10.2786 0.731801 0.0259123 6.87434e-10 2.64118e-09 -6.71419e-11 2.22167 -0.733487 -0.20892 9.46284e-14 -3.14149e-12 3.84311e-14 -34.0249 -14.6664 0.568442 19.354 -13.5918 -34.4366 0.232543 -15.3503 2.19763 -3.35778e-10 9.67323e-10 8.50898e-11 -5.81244e-10 1.66273e-09 1.42828e-10 -3.35785e-10 9.67298e-10 8.51048e-11 -7.73091 5.47488 -0.417314 -3.35781e-10 9.67313e-10 8.50944e-11 -2.90554 0.965183 -0.102902 -3.35785e-10 9.67313e-10 8.50925e-11 -10.2786 0.731801 -0.0259123 -3.35772e-10 9.67313e-10 8.50786e-11 -2.22167 -0.733487 0.20892 -2.03217e-16 0.0 -3.88251e-19 -0.203257 -27.3999 2.17833 -0.494204 51.039 1.09098 -2.76539 -18.3124 -5.77913 2.03217e-16 0.0 3.88251e-19 3.63179 -25.6924 8.92703 0.544859 49.467 -0.904842 -1.75554 -17.9864 -5.18481
